<svg width="36" height="36" viewBox="0 0 36 36" fill="none" xmlns="http://www.w3.org/2000/svg">
<path d="M24.1988 21.2C22.7005 26.8262 13.2995 26.8262 11.8012 21.2M18 2C9.16344 2 2 9.16344 2 18C2 26.8366 9.16344 34 18 34C26.8366 34 34 26.8366 34 18C34 9.16344 26.8366 2 18 2ZM12.4 13.2C11.5163 13.2 11.6 13.9163 11.6 14.8C11.6 15.6837 11.5163 16.4 12.4 16.4C13.2837 16.4 13.2 15.6837 13.2 14.8C13.2 13.9163 13.2837 13.2 12.4 13.2ZM23.6 13.2C22.7163 13.2 22.8 13.9163 22.8 14.8C22.8 15.6837 22.7163 16.4 23.6 16.4C24.4837 16.4 24.4 15.6837 24.4 14.8C24.4 13.9163 24.4837 13.2 23.6 13.2Z" stroke="#1C1D22" stroke-width="2.66667"/>
</svg>
