<?xml version="1.0" standalone="no"?>
<!DOCTYPE svg PUBLIC "-//W3C//DTD SVG 20010904//EN"
 "http://www.w3.org/TR/2001/REC-SVG-20010904/DTD/svg10.dtd">
<svg version="1.0" xmlns="http://www.w3.org/2000/svg"
 width="36.000000pt" height="36.000000pt" viewBox="0 0 36.000000 36.000000"
 preserveAspectRatio="xMidYMid meet">

<g transform="translate(0.000000,36.000000) scale(0.100000,-0.100000)"
fill="#000000" stroke="none">
<path d="M102 334 c-110 -56 -124 -216 -25 -291 45 -35 125 -43 177 -18 114
54 129 216 29 292 -45 34 -131 42 -181 17z m117 -14 c77 -22 122 -102 101
-179 -12 -46 -64 -96 -109 -106 -103 -22 -199 80 -172 183 12 44 55 89 97 102
39 11 44 11 83 0z"/>
<path d="M100 226 c0 -7 7 -19 15 -26 12 -10 18 -10 30 0 25 21 18 40 -15 40
-19 0 -30 -5 -30 -14z"/>
<path d="M200 226 c0 -7 7 -19 15 -26 12 -10 18 -10 30 0 25 21 18 40 -15 40
-19 0 -30 -5 -30 -14z"/>
<path d="M100 146 c0 -7 9 -25 21 -40 16 -20 29 -26 59 -26 30 0 43 6 59 26
37 47 29 54 -59 54 -61 0 -80 -3 -80 -14z"/>
</g>
</svg>
