<?xml version="1.0" encoding="UTF-8"?>
<svg xmlns="http://www.w3.org/2000/svg" width="182" height="30" viewBox="0 0 182 30" fill="none">
  <path d="M17.1986 5.72754L16.8383 8.61914C16.0238 8.66602 15.1097 8.78906 14.0961 8.98828C13.0824 9.18164 12.1068 9.41602 11.1693 9.69141C11.9545 10.3008 12.6576 10.9482 13.2787 11.6338C13.9056 12.3193 14.4008 13.0225 14.764 13.7432C15.1273 14.4639 15.309 15.1787 15.309 15.8877C15.309 16.4385 15.1888 16.9746 14.9486 17.4961C14.7084 18.0176 14.3861 18.46 13.9818 18.8232C13.0795 19.1396 12.1068 19.3623 11.0638 19.4912C10.0267 19.6143 9.0072 19.6758 8.00525 19.6758C6.82751 19.6758 5.79333 19.5381 4.90271 19.2627C4.01208 18.9873 3.31775 18.5449 2.8197 17.9355C2.32751 17.3203 2.08142 16.5088 2.08142 15.501C2.08142 14.9092 2.13123 14.3174 2.23083 13.7256C2.3363 13.1279 2.46521 12.5273 2.61755 11.9238L4.61267 12.2754C4.47205 12.7324 4.35779 13.1807 4.2699 13.6201C4.18201 14.0537 4.13806 14.4316 4.13806 14.7539C4.13806 15.1523 4.29919 15.4746 4.62146 15.7207C4.94373 15.9609 5.38904 16.1367 5.9574 16.248C6.52576 16.3535 7.17615 16.4062 7.90857 16.4062C8.31287 16.4062 8.76111 16.3945 9.2533 16.3711C9.75134 16.3477 10.2435 16.3096 10.7299 16.2568C11.2162 16.2041 11.6527 16.1367 12.0394 16.0547C12.432 15.9727 12.7279 15.8701 12.9271 15.7471C12.7748 15.1729 12.4789 14.6133 12.0394 14.0684C11.6 13.5234 11.0521 12.9785 10.3959 12.4336L9.2533 12.917L8.21619 10.7461L8.55896 9.375C8.68201 8.88867 8.83435 8.49609 9.01599 8.19727C9.20349 7.89258 9.4613 7.64063 9.78943 7.44141C10.1234 7.24219 10.5717 7.05469 11.1342 6.87891C11.5912 6.72656 12.1683 6.57422 12.8656 6.42188C13.5629 6.26367 14.2924 6.12305 15.0541 6C15.8217 5.87109 16.5365 5.78027 17.1986 5.72754ZM16.3812 4.34766C15.1801 4.46484 13.9818 4.66406 12.7865 4.94531C11.5912 5.2207 10.3812 5.5752 9.15662 6.00879L9.34998 4.58496C10.5511 4.14551 11.7377 3.79102 12.9095 3.52148C14.0814 3.25195 15.3031 3.05273 16.5746 2.92383L16.3812 4.34766ZM28.1761 4.90137V15.7471C28.516 16.0811 29.0316 16.248 29.723 16.248H29.7318V19.5H29.723C28.4867 19.5 27.5668 19.3008 26.9633 18.9023C26.3656 18.498 25.973 17.9678 25.7855 17.3115C24.889 18.1377 23.764 18.7383 22.4105 19.1133C21.057 19.4883 19.5131 19.6758 17.7787 19.6758L17.9896 16.4238C19.5306 16.4238 20.9369 16.3154 22.2084 16.0986C23.4857 15.8818 24.6078 15.5156 25.5746 15V12.3369C25.5746 11.2881 25.5365 10.2715 25.4603 9.28711C25.39 8.29688 25.2699 7.3916 25.1 6.57129L28.1761 4.90137ZM19.8617 5.25293C20.4242 6.14941 20.931 7.10156 21.3822 8.10938C21.8392 9.11133 22.2347 10.1162 22.5687 11.124C22.9086 12.126 23.1722 13.0781 23.3597 13.9805C23.0609 14.1445 22.7386 14.2822 22.3929 14.3936C22.0531 14.5049 21.7074 14.6016 21.3558 14.6836C21.0687 13.7695 20.7787 12.9141 20.4857 12.1172C20.1986 11.3203 19.847 10.5293 19.431 9.74414L17.9545 9.75293L18.0248 7.2832L19.8617 5.25293ZM30.4261 21.3369C30.7894 21.4658 31.1322 21.6533 31.4545 21.8994C31.7826 22.1514 32.0961 22.4326 32.3949 22.7432C32.1664 23.0654 31.9349 23.3877 31.7006 23.71C31.472 24.0381 31.2347 24.3691 30.9886 24.7031C30.7015 24.4453 30.3939 24.1992 30.0658 23.9648C29.7435 23.7305 29.3978 23.5107 29.0287 23.3057C29.2689 22.9717 29.5033 22.6406 29.7318 22.3125C29.9662 21.9844 30.1976 21.6592 30.4261 21.3369ZM29.7318 19.5C29.6088 19.5 29.5179 19.4531 29.4594 19.3594C29.3949 19.2598 29.3627 19.0811 29.3627 18.8232V16.9248C29.3627 16.667 29.3949 16.4912 29.4594 16.3975C29.5179 16.2979 29.6088 16.248 29.7318 16.248H30.4965C30.8949 16.248 31.264 16.2305 31.6039 16.1953C31.9437 16.1543 32.2338 16.0781 32.474 15.9668C32.3861 15.4512 32.222 14.9004 31.9818 14.3145C31.7416 13.7285 31.4633 13.1514 31.1469 12.583L33.4584 10.3066C33.8217 10.9102 34.1381 11.6514 34.4076 12.5303C34.6771 13.4033 34.8119 14.2852 34.8119 15.1758C34.8119 15.791 34.7064 16.4062 34.4955 17.0215C34.2904 17.6309 33.9974 18.2285 33.6166 18.8145C33.101 19.0547 32.5502 19.2305 31.9642 19.3418C31.3842 19.4473 30.7338 19.5 30.0131 19.5H29.7318Z" fill="#1C1D22"></path>
  <path d="M170.085 15.4548C169.216 19.2518 167.715 23.0194 165.743 25.6979C165.67 25.8009 165.596 25.9039 165.508 26.0069C164.919 26.7722 164.183 27.3756 163.344 27.8024C162.756 28.0967 162.093 28.3028 161.402 28.4058C161.402 28.4058 161.358 28.4058 161.343 28.4058C158.973 27.3756 155.456 24.6235 158.576 22.6073C158.591 22.5778 158.62 22.5631 158.635 22.5337C159.827 21.2386 160.828 19.7374 161.608 18.0744C163.241 14.6159 163.992 10.4362 163.521 5.85924L168.01 2.22412C168.422 1.88562 168.996 1.87091 169.408 2.15053C169.54 2.23883 169.658 2.35657 169.746 2.50374C171.321 4.90263 171.306 10.2008 170.085 15.4548Z" fill="#BA7F36"></path>
  <path d="M179.033 14.66L179.092 23.6521C179.018 23.7699 178.886 24.0642 178.753 24.3144C178.532 24.697 178.267 25.0355 177.973 25.3446C177.973 25.3446 177.561 25.7714 177.414 25.7567L171.38 24.388C171.969 23.7699 172.528 22.931 173.043 21.9155C174.073 19.914 174.897 17.2796 175.339 14.5128C175.545 13.2177 175.663 11.9079 175.663 10.6128L179.018 14.66H179.033Z" fill="#BA7F36"></path>
  <path d="M163.344 27.7875C162.756 28.0818 162.093 28.2878 161.402 28.3909C159.989 28.5969 158.37 28.3761 156.604 27.6403C156.604 27.6403 156.589 27.6403 156.574 27.6403C153.396 26.0508 149.613 22.4893 149.422 14.8511C149.304 9.92092 151.629 6.96278 153.454 5.27032C154.514 4.29899 156.177 5.06428 156.03 6.47712C155.544 10.9217 156.53 17.7651 158.635 22.5335C159.856 25.3003 161.46 27.3459 163.359 27.7875H163.344Z" fill="#FFC032"></path>
  <path d="M177.075 26.3011C176.236 27.14 175.53 27.5668 174.441 28.0966C172.116 29.2004 168.893 29.8038 166.553 26.8015C166.273 26.4483 165.993 26.0804 165.728 25.6977C164.198 23.6079 162.711 21.1649 161.608 18.1331C160.386 14.8071 159.665 10.8482 159.842 6.06513C159.945 3.38663 161.931 1.28208 164.492 1.03189C166.405 0.84057 168.451 1.54699 169.393 2.16511C167.553 1.51756 168.451 10.495 170.07 15.4546C170.85 17.8388 171.865 20.0905 173.043 21.9301C174.323 23.9464 177.075 26.3011 177.973 25.3592C177.973 25.3592 177.075 26.3011 177.075 26.3158V26.3011Z" fill="#FFC032"></path>
  <path d="M181.961 11.3339C182.05 13.2324 182.006 15.0131 181.623 17.0146C181.623 17.0294 181.623 17.0588 181.623 17.0735C181.078 19.5018 180.343 21.6064 179.371 23.343C179.298 23.4607 178.841 24.2113 178.768 24.329C179.268 23.5196 179.077 21.0324 178.032 18.6777C177.37 17.1765 176.31 15.9109 175.353 14.5275C174.147 12.7614 173.161 10.8188 173.484 8.06666C173.838 5.09381 175.942 4.12249 177.414 4.28438C179.533 4.62287 181.77 7.36024 181.976 11.3486L181.961 11.3339Z" fill="#FFC032"></path>
  <path d="M64.372 16.014C63.6509 16.014 63.1357 15.808 62.8267 15.4106C62.5176 15.0132 62.3704 14.5129 62.3704 13.88C62.3704 13.6004 62.3999 13.2913 62.444 12.9676C62.5029 12.6438 62.5618 12.2906 62.6501 11.9079L60.2218 11.5253C59.8244 12.6585 59.2504 13.571 58.4998 14.248C57.7346 14.9397 56.7338 15.4548 55.4976 15.7638C54.2466 16.0876 52.7013 16.2495 50.8175 16.2495C49.4341 16.2495 48.4628 16.1317 47.9036 15.8963C47.3149 15.6755 47.0353 15.2634 47.0353 14.66C47.0353 14.2185 47.1824 13.7329 47.5062 13.1883C47.8152 12.6438 48.1832 12.114 48.6247 11.5842C49.3164 11.54 50.1553 11.4959 51.1266 11.4664C52.1127 11.4664 53.084 11.437 54.07 11.437C54.438 11.437 54.7764 11.437 55.0855 11.437C55.4092 11.437 55.7036 11.4664 55.9832 11.4959C56.4247 10.6276 56.6455 9.84755 56.6455 9.12641C56.6455 8.50829 56.41 8.0815 55.9391 7.83131C55.4829 7.58112 54.6587 7.46338 53.4813 7.46338C53.0251 7.46338 52.4511 7.46338 51.7447 7.49281C51.0383 7.52225 50.3171 7.55168 49.5666 7.59583C48.8307 7.62527 48.1685 7.66942 47.5798 7.71357C46.8587 8.65546 46.1816 9.61207 45.5782 10.5687C44.9601 11.5253 44.4598 12.4819 44.0918 13.3944C43.7092 14.3363 43.5326 15.234 43.5326 16.0729C43.5326 17.677 44.1507 18.928 45.3869 19.8552C46.6231 20.7823 48.3156 21.2386 50.5085 21.2386C51.8772 21.2386 53.1723 21.0767 54.438 20.7529C55.7183 20.4291 56.8368 19.9876 57.8229 19.4136C58.8089 18.825 59.5742 18.1627 60.0893 17.4268C60.3542 18.5601 60.8693 19.4284 61.6199 20.0318C62.3851 20.6499 63.2976 20.9737 64.3425 20.9737H64.3573V15.9257H64.3425L64.372 16.014Z" fill="#1C1D22"></path>
  <path d="M82.7978 11.2898C82.5034 10.3773 82.165 9.62673 81.797 8.9939L78.8389 11.8049C79.2215 12.32 79.5453 12.9086 79.8249 13.5415C80.1046 14.189 80.34 14.8219 80.5313 15.44C80.237 15.7638 79.9574 15.9845 79.7219 16.1022C79.4864 16.22 79.1185 16.2789 78.6475 16.2789C77.8528 16.2789 77.323 16.1464 77.0287 15.8815C76.7343 15.6166 76.5872 15.1456 76.5872 14.4834C76.5872 14.2332 76.6019 13.9094 76.6166 13.5415C76.646 13.1736 76.6902 12.8351 76.7196 12.5407H73.8203C73.6879 13.5268 73.5407 14.292 73.3935 14.8513C73.2316 15.3958 73.0109 15.7785 72.746 15.9992C72.4664 16.22 72.0837 16.3377 71.5686 16.3377C70.8916 16.3377 70.4501 16.1906 70.2294 15.9256C70.0233 15.6607 69.9203 15.2045 69.9203 14.557C69.9203 13.983 70.0086 13.1883 70.1852 12.1875L67.286 11.7754C67.0946 12.8351 66.9033 13.6739 66.7267 14.292C66.5354 14.9102 66.2558 15.3517 65.9173 15.6166C65.5641 15.8815 65.049 16.0139 64.372 16.0139H64.3573C64.1807 16.0139 64.0629 16.0728 63.9746 16.2053C63.8863 16.3377 63.8422 16.5879 63.8422 16.9558V20.1053C63.8422 20.4732 63.8863 20.7234 63.9746 20.8559C64.0629 20.9883 64.1807 21.0619 64.3573 21.0619H64.372C64.8724 21.0619 65.3874 20.9589 65.9025 20.7823C66.4176 20.6057 66.8739 20.3261 67.286 19.9434C67.698 19.5755 67.9924 19.0898 68.169 18.5158C68.3603 19.3989 68.7871 20.0906 69.4346 20.5762C70.0822 21.0766 70.8475 21.3121 71.7158 21.3121C72.5841 21.3121 73.2905 21.0766 73.9675 20.6204C74.6592 20.1494 75.1155 19.4725 75.3657 18.5747C75.5423 19.443 75.9102 20.12 76.4989 20.591C77.0875 21.0619 77.8528 21.2974 78.8095 21.2974C79.4276 21.2974 79.9426 21.2091 80.3842 21.0178C80.8257 20.8264 81.2819 20.5468 81.7529 20.1789C82.2238 19.2517 82.5917 18.2951 82.8713 17.3238C83.1362 16.3377 83.2687 15.44 83.2687 14.6453C83.2687 13.306 83.1215 12.1875 82.8419 11.3045L82.7978 11.2898Z" fill="#1C1D22"></path>
  <path d="M90.5978 16.014C90.1857 16.014 89.8325 15.9699 89.5529 15.8816C89.2585 15.7933 89.0083 15.6755 88.7729 15.4989V2.29768L87.8752 1.91504L84.3136 5.29997C84.4019 5.91808 84.4607 6.55092 84.5196 7.22791C84.6226 8.58188 84.6668 9.93585 84.6668 11.3193V15.6608C84.6668 16.2936 84.7404 16.9412 84.8729 17.574C84.9906 18.2216 85.2555 18.7955 85.6529 19.3253C86.0502 19.8552 86.6536 20.282 87.4336 20.591C88.2283 20.9148 89.288 21.0767 90.5978 21.0767H90.6125V16.0287H90.5978V16.014Z" fill="#1C1D22"></path>
  <path d="M105.315 11.0691C104.903 10.4363 104.299 9.87706 103.505 9.42083C102.71 8.96461 101.739 8.49366 100.591 8.00799C99.899 7.71365 99.1484 7.38988 98.339 7.02195C97.5296 6.66874 96.6613 6.25666 95.7194 5.771C94.9688 6.41855 94.2918 7.22799 93.7031 8.19932C93.1145 9.17064 92.6435 10.2303 92.305 11.3782C91.9518 12.5261 91.7899 13.7182 91.7899 14.925C91.7899 15.3224 91.8782 15.6756 92.0548 15.9699C91.5986 15.9699 91.1129 15.9994 90.5831 15.9994H90.5684C90.3918 15.9994 90.274 16.0582 90.1857 16.1907C90.0974 16.3231 90.0533 16.5733 90.0533 16.9413V20.0907C90.0533 20.4586 90.0974 20.7088 90.1857 20.8413C90.274 20.9737 90.3918 21.0473 90.5684 21.0473H90.5831C92.1137 21.0473 93.5707 20.7236 95.0129 20.076C96.1756 20.6647 97.5149 21.0473 99.0454 21.2092C100.591 21.3858 102.092 21.3564 103.608 21.1209L105.491 15.7639C105.624 15.396 105.727 15.0133 105.801 14.6307C105.859 14.248 105.904 13.8948 105.904 13.571C105.904 12.5261 105.698 11.6873 105.285 11.0397L105.315 11.0691ZM96.5141 15.1311C95.8371 14.8956 95.3073 14.616 94.9394 14.2628C94.5714 13.9095 94.3801 13.468 94.3801 12.9235C94.3801 12.379 94.5567 11.8933 94.8952 11.4665C95.2484 11.0397 95.7194 10.8337 96.3228 10.8337C96.8232 10.8337 97.3088 11.025 97.7356 11.3929C98.1771 11.7756 98.3979 12.2612 98.3979 12.8793C98.3979 13.7477 97.7798 14.4982 96.5141 15.1311V15.1311ZM101.547 15.8375C101.003 15.808 100.399 15.7492 99.7371 15.6756C100.046 15.2046 100.252 14.719 100.385 14.2333C100.517 13.7329 100.576 13.2326 100.576 12.7322C100.576 12.6144 100.576 12.482 100.561 12.3643C100.561 12.2465 100.532 12.1288 100.517 12.011C101.562 12.4526 102.313 12.9529 102.784 13.5122C103.254 14.0862 103.446 14.8809 103.387 15.9111C102.725 15.9111 102.107 15.8816 101.547 15.8375V15.8375Z" fill="#1C1D22"></path>
  <path d="M140.945 7.08074C140.754 5.44715 140.489 3.84299 140.135 2.28297L139.238 2.01807L135.764 5.31469C136.074 6.65395 136.324 8.09622 136.515 9.6268C136.765 11.5842 136.883 13.6004 136.883 15.705C136.559 15.808 136.221 15.8816 135.838 15.9404C135.47 15.9846 135.087 16.014 134.705 16.014C134.528 16.014 134.396 16.0729 134.307 16.2053C134.219 16.3378 134.175 16.588 134.175 16.9559V20.1054C134.175 20.4733 134.219 20.7235 134.307 20.8559C134.396 20.9884 134.528 21.062 134.705 21.062C136.294 21.062 137.56 20.8265 138.517 20.3703C139.488 19.914 140.312 19.2959 140.989 18.5159C141.077 17.5593 141.136 16.6027 141.195 15.6167C141.239 14.6306 141.269 13.7329 141.269 12.9381C141.269 10.9808 141.166 9.03812 140.945 7.06603V7.08074Z" fill="#1C1D22"></path>
  <path d="M125.271 16.4998C124.859 16.4262 124.535 16.279 124.285 16.0583C124.035 15.8228 123.917 15.5726 123.917 15.2782C123.917 14.8367 124.035 14.4247 124.271 14.042C124.521 13.6447 124.83 13.3356 125.227 13.1001C125.61 12.8499 126.007 12.7322 126.419 12.7322L127.67 8.33179C126.772 8.33179 125.919 8.53783 125.124 8.93519C124.315 9.34727 123.608 9.8918 122.99 10.6129C122.372 11.3194 121.901 12.1435 121.563 13.0707C121.224 13.9979 121.092 14.9839 121.136 16.0141H119.9C119.738 16.0141 119.605 16.073 119.517 16.2054C119.414 16.3379 119.37 16.5881 119.37 16.956V20.1055C119.37 20.4734 119.414 20.7236 119.517 20.856C119.605 20.9885 119.738 21.0621 119.9 21.0621C121.357 21.0621 122.843 21.1357 124.388 21.2681C125.919 21.4153 127.376 21.636 128.759 21.9009L129.539 17.2651L125.271 16.4998V16.4998Z" fill="#1C1D22"></path>
  <path d="M126.419 12.7469C129.068 12.7469 129.274 21.0621 134.705 21.0621V16.0141C130.128 16.0141 130.673 8.33179 127.656 8.33179L126.405 12.7469H126.419Z" fill="#1C1D22"></path>
  <path d="M124.418 24.0789C124.727 24.0937 125.418 24.1084 126.478 24.1084C127.538 24.1084 129.171 24.0054 131.349 23.7993C131.894 24.2555 132.203 24.5205 132.291 24.594C131.835 25.6831 131.394 26.7427 130.967 27.7729C128.671 27.9643 126.89 28.0673 125.639 28.0673C124.388 28.0673 123.755 27.5375 123.755 26.4631C123.755 25.7273 123.976 24.9472 124.418 24.0937V24.0789Z" fill="#1C1D22"></path>
  <path d="M118.619 16.0141C118.398 14.6749 118.016 13.4681 117.501 12.4084C116.986 11.3341 116.367 10.4952 115.617 9.86237C114.881 9.22954 114.057 8.90576 113.144 8.90576C112.364 8.90576 111.673 9.15595 111.069 9.67105C110.451 10.1714 109.951 10.8484 109.524 11.6726C109.112 12.4967 108.803 13.4092 108.582 14.3658C108.361 15.3518 108.258 16.3085 108.258 17.2209C108.258 18.5896 108.626 19.6051 109.347 20.2821C110.069 20.9591 111.084 21.2975 112.409 21.2975C113.115 21.2975 113.763 21.2387 114.366 21.1209C114.969 21.0032 115.499 20.856 115.97 20.65C115.97 21.0326 116 21.3711 116 21.6949C115.087 22.3866 114.042 22.9017 112.88 23.2402C111.702 23.5787 110.275 23.77 108.597 23.8142L107.419 26.5074C108.067 26.9342 108.641 27.258 109.156 27.4787C109.671 27.6995 110.157 27.8614 110.642 27.9497C111.113 28.0233 111.614 28.0674 112.158 28.0674C113.512 28.0674 114.646 27.7583 115.558 27.1549C116.485 26.5515 117.206 25.7127 117.736 24.653C118.266 23.5934 118.604 22.3866 118.752 21.0621H119.9V16.0141H118.619V16.0141ZM114.16 16.7352C113.748 16.7794 113.35 16.8088 112.968 16.8088C112.409 16.8088 111.952 16.7205 111.614 16.5734C111.275 16.4262 111.099 16.1024 111.099 15.6168C111.099 15.2488 111.172 14.8809 111.29 14.4983C111.423 14.1009 111.614 13.7771 111.835 13.5122C112.07 13.2473 112.335 13.1148 112.629 13.1148C113.189 13.1148 113.704 13.4386 114.175 14.0715C114.631 14.719 114.999 15.5432 115.293 16.5734C114.94 16.6469 114.557 16.6911 114.16 16.7352Z" fill="#1C1D22"></path>
</svg>
